OpenSim_Sub07_EMGStiffKnee_GRF.mot
version=1
nRows=40
nColumns=19
inDegrees=no
endheader
time	lFx	lFy	lFz	lCOPx	lCOPy	lCOPz	rFx	rFy	rFz	rCOPx	rCOPy	rCOPz	lMx	lMy	lMz	rMx	rMy	rMz
55.41000000	-47.48470379	580.04450212	42.91117907	0.52993456	0	-0.59100677	46.17442152	243.44652260	5.48405017	0.23783415	0	-0.41799348	0	5.65129732	0	0	1.69583359	-0.00000000
55.42000000	-48.52402670	614.74406971	43.87104480	0.52639800	0	-0.59065887	36.85949143	195.56398842	4.26206003	0.23848041	0	-0.42091013	0	6.82748029	0	0	1.44527332	0
55.43000000	-48.88704732	649.51219686	45.14252706	0.52186272	0	-0.59034258	27.64619010	153.03737776	1.69464938	0.24083534	0	-0.42583480	0	7.92135047	0	0	1.20260417	0
55.44000000	-48.49379692	681.71818716	46.61243163	0.51687760	0	-0.59012831	19.24071409	116.87386551	-0.78334127	0.24313496	0	-0.42982119	0	8.80259133	0	0	0.83570686	0.00000000
55.45000000	-47.63195781	709.60805535	48.14749593	0.51180452	0	-0.59006001	12.38014231	87.57962760	-2.47822227	0.23969961	0	-0.42354473	0	9.41722816	0	0	0.37434165	0
55.46000000	-46.49844466	732.14766371	49.85355601	0.50670842	0	-0.59018201	7.14176870	64.90161154	-3.32407899	0.22190934	0	-0.38906751	0	9.73413169	0	0	0.06876230	-0.00000000
55.47000000	-45.10843780	749.17897857	51.94484848	0.50158083	0	-0.59050427	3.41186700	47.43161686	-3.41440876	0.18095041	0	-0.30585529	0	9.75111518	0	0	-0.09229947	-0.00000000
55.48000000	-43.47507458	761.32090666	54.38612080	0.49639182	0	-0.59099069	0.85165915	33.50544493	-3.05571939	0.11630445	0	-0.17961415	0	9.51408070	0	0	-0.15992428	-0.00000000
55.49000000	-41.78369444	769.68892598	56.90215254	0.49130599	0	-0.59158755	-1.08150650	22.22935395	-2.57673119	0.04983248	0	-0.06714318	0	9.07189149	0	0	-0.12038225	0.00000000
55.50000000	-40.07956931	775.28748218	59.01145041	0.48637792	0	-0.59222934	-2.31626981	13.21639088	-2.00398632	0.00952784	0	-0.00679591	0	8.56108524	0	0	-0.05493605	0.00000000
55.51000000	-38.27500016	778.74569434	60.27454363	0.48152821	0	-0.59286521	-2.33420907	6.43813163	-1.26009200	-0.00545590	0	0.01222492	0	8.20445853	0	0	-0.01256885	-0.00000000
55.52000000	-36.33967615	780.39247082	60.64637793	0.47668971	0	-0.59346667	-1.27917094	2.09717016	-0.43824022	-0.00691390	0	0.01165391	0	8.04406585	0	0	0.00434867	-0.00000000
55.53000000	-34.38125935	779.94928921	60.37914633	0.47190895	0	-0.59401311	-0.17814944	-0.11041317	0.13951891	-0.00413852	0	0.00617709	0	7.97725520	0	0	0.00682270	-0.00000000
55.54000000	-32.52107679	776.58443913	59.72461811	0.46717939	0	-0.59450625	0.46184069	-0.79139144	0.33587344	-0.00151515	0	0.00190960	0	7.91426180	0	0	0.00435694	-0.00000000
55.55000000	-30.68014174	769.60463122	58.79466691	0.46244686	0	-0.59499719	0.65941453	-0.62629685	0.34610169	-0.00013084	0	-0.00008858	0	7.85075773	0	0	0.00171540	-0.00000000
55.56000000	-28.79605130	759.33572541	57.74878089	0.45768394	0	-0.59552525	0.62907591	-0.24881184	0.33441098	0.00029403	0	-0.00057506	0	7.74579953	0	0	0.00023477	0.00000000
55.57000000	-26.89636560	746.94778563	56.69484790	0.45305534	0	-0.59610957	0.54867428	0.03897437	0.30744654	0.00027170	0	-0.00044053	0	7.59030301	0	0	-0.00026300	-0.00000000
55.58000000	-25.14923640	733.71700878	55.72507725	0.44864329	0	-0.59668689	0.52080619	0.16177827	0.25977621	0.00014163	0	-0.00020372	0	7.38748488	0	0	-0.00027407	0.00000000
55.59000000	-23.47106605	720.66247090	54.82062348	0.44433952	0	-0.59723516	0.53640034	0.16980654	0.22001877	0.00004260	0	-0.00004816	0	7.15471037	0	0	-0.00015173	0.00000000
55.60000000	-21.73317083	708.56929868	53.95966544	0.44001737	0	-0.59778671	0.55940488	0.12041103	0.22787887	-0.00000299	0	0.00001488	0	6.92440286	0	0	-0.00005012	0.00000000
55.61000000	-19.92150087	697.93027646	53.07980184	0.43543941	0	-0.59833150	0.56447123	0.06385860	0.25044831	-0.00001364	0	0.00002470	0	6.75403534	0	0	-0.00000042	-0.00000000
55.62000000	-18.24330892	689.15680234	52.15778084	0.43057376	0	-0.59881972	0.55183869	0.02096323	0.27836414	-0.00001022	0	0.00001600	0	6.66624114	0	0	0.00001288	0.00000000
55.63000000	-16.66434555	682.52708568	51.16214783	0.42549790	0	-0.59923027	0.51600150	-0.03250990	0.35792409	-0.00000464	0	0.00000639	0	6.61720584	0	0	0.00001051	0.00000000
55.64000000	-14.97083726	678.18776386	50.00906223	0.42011851	0	-0.59956755	0.45668433	-0.10745151	0.38905272	-0.00000105	0	0.00000094	0	6.71385458	0	0	0.00000508	-0.00000000
55.65000000	-13.07093860	675.96942701	48.82254395	0.41443162	0	-0.59980495	0.40977297	-0.10885291	0.35422185	0.00000038	0	-0.00000093	0	6.92681267	0	0	0.00000131	-0.00000000
55.66000000	-11.15795350	675.49978562	47.78176232	0.40849087	0	-0.59994691	0.38613210	-0.06423257	0.30806359	0.00000057	0	-0.00000099	0	7.16146484	0	0	-0.00000032	-0.00000000
55.67000000	-9.34353465	676.47784928	46.94962131	0.40218018	0	-0.60001472	0.39426651	0.03041031	0.25354649	0.00000034	0	-0.00000054	0	7.39206948	0	0	-0.00000066	-0.00000000
55.68000000	-7.48269958	678.80731117	46.30911935	0.39559323	0	-0.60005732	0.42652623	0.10787989	0.27764030	0.00000009	0	-0.00000015	0	7.62827991	0	0	-0.00000051	-0.00000000
55.69000000	-5.43510424	682.39432073	45.80101137	0.38884044	0	-0.60012317	0.43814260	0.16994061	0.31922302	-0.00000004	0	0.00000005	0	7.87719306	0	0	-0.00000016	-0.00000000
55.70000000	-3.34117983	686.90492946	45.38962040	0.38213475	0	-0.60020294	0.44710232	0.22077096	0.27985307	0.00000001	0	0.00000005	0	8.11612507	0	0	0.00000043	-0.00000000
55.71000000	-1.33482128	691.99381235	45.06095571	0.37555081	0	-0.60027205	0.45753636	0.24110653	0.25753457	0.00000031	0	-0.00000015	0	8.33541162	0	0	0.00000142	0.00000000
55.72000000	0.83396804	697.48509215	44.81595805	0.36902858	0	-0.60035473	0.47877455	0.26494418	0.26691846	0.00000088	0	-0.00000056	0	8.55360111	0	0	0.00000256	-0.00000000
55.73000000	3.27841469	703.43244445	44.72436619	0.36241216	0	-0.60046184	0.50860335	0.28789823	0.30334197	0.00000145	0	-0.00000105	0	8.79771024	0	0	0.00000246	-0.00000000
55.74000000	5.92336131	709.75605732	44.80012428	0.35579892	0	-0.60059819	0.51980495	0.29635156	0.35062771	0.00000105	0	-0.00000103	0	9.05687941	0	0	-0.00000214	-0.00000000
55.75000000	8.56039127	716.01407182	44.94014641	0.34924417	0	-0.60071673	0.53182087	0.36009767	0.32933605	-0.00000229	0	0.00000085	0	9.33854033	0	0	-0.00001584	0.00000000
55.76000000	11.15144565	721.93489995	45.13565132	0.34263373	0	-0.60076277	0.54849043	0.44601121	0.31282033	-0.00001098	0	0.00000654	0	9.64268135	0	0	-0.00004029	0.00000000
55.77000000	13.71751905	727.45692001	45.42549816	0.33588622	0	-0.60074007	0.53128769	0.47683108	0.33074620	-0.00002491	0	0.00001675	0	9.98126684	0	0	-0.00006320	-0.00000000
55.78000000	16.30988872	732.65929316	45.80714275	0.32912782	0	-0.60072809	0.50169663	0.43157418	0.29477681	-0.00003455	0	0.00002644	0	10.33518915	0	0	-0.00004054	-0.00000000
55.79000000	18.89586115	737.50355102	46.31224634	0.32248803	0	-0.60076501	0.48316377	0.34771349	0.25243574	-0.00001124	0	0.00001737	0	10.62104828	0	0	0.00011566	-0.00000000
55.80000000	21.55941298	741.67254952	46.92168242	0.31587372	0	-0.60083076	0.46915298	0.30471765	0.23606095	0.00009663	0	-0.00004712	0	10.83330579	0	0	0.00050750	-0.00000000
